<mxfile host="app.diagrams.net" agent="Mozilla/5.0 (Windows NT 10.0; Win64; x64) AppleWebKit/537.36 (KHTML, like Gecko) Chrome/129.0.0.0 Safari/537.36 Edg/129.0.0.0" version="24.7.16">
  <diagram id="6a731a19-8d31-9384-78a2-239565b7b9f0" name="Page-1">
    <mxGraphModel dx="1386" dy="791" grid="1" gridSize="10" guides="1" tooltips="1" connect="1" arrows="1" fold="1" page="1" pageScale="1" pageWidth="1169" pageHeight="827" background="none" math="0" shadow="0">
      <root>
        <mxCell id="0" />
        <mxCell id="1" parent="0" />
        <mxCell id="2" value="start" style="shape=mxgraph.flowchart.terminator;strokeWidth=2;gradientColor=none;gradientDirection=north;fontStyle=0;html=1;" parent="1" vertex="1">
          <mxGeometry x="260" y="60" width="120" height="30" as="geometry" />
        </mxCell>
        <mxCell id="7" style="fontStyle=1;strokeColor=#003366;strokeWidth=1;html=1;" parent="1" source="2" edge="1">
          <mxGeometry relative="1" as="geometry">
            <mxPoint x="320" y="130" as="targetPoint" />
          </mxGeometry>
        </mxCell>
        <mxCell id="40" value="end" style="shape=mxgraph.flowchart.terminator;strokeWidth=2;gradientColor=none;gradientDirection=north;fontStyle=0;html=1;" parent="1" vertex="1">
          <mxGeometry x="260" y="1360" width="120" height="30" as="geometry" />
        </mxCell>
        <mxCell id="OAwSjOkc7tIBtyKEKRf7-55" value="ввод a" style="shape=parallelogram;perimeter=parallelogramPerimeter;whiteSpace=wrap;html=1;fixedSize=1;" parent="1" vertex="1">
          <mxGeometry x="260" y="130" width="120" height="60" as="geometry" />
        </mxCell>
        <mxCell id="OAwSjOkc7tIBtyKEKRf7-56" value="" style="endArrow=classic;html=1;rounded=0;" parent="1" edge="1">
          <mxGeometry width="50" height="50" relative="1" as="geometry">
            <mxPoint x="319.5" y="190" as="sourcePoint" />
            <mxPoint x="319.5" y="260" as="targetPoint" />
          </mxGeometry>
        </mxCell>
        <mxCell id="OAwSjOkc7tIBtyKEKRf7-58" value="sot = a / 100" style="rounded=0;whiteSpace=wrap;html=1;" parent="1" vertex="1">
          <mxGeometry x="260" y="260" width="120" height="60" as="geometry" />
        </mxCell>
        <mxCell id="OAwSjOkc7tIBtyKEKRf7-59" value="" style="endArrow=classic;html=1;rounded=0;" parent="1" edge="1">
          <mxGeometry width="50" height="50" relative="1" as="geometry">
            <mxPoint x="319.5" y="320" as="sourcePoint" />
            <mxPoint x="319.5" y="390" as="targetPoint" />
          </mxGeometry>
        </mxCell>
        <mxCell id="OAwSjOkc7tIBtyKEKRf7-60" value="dec = a % 100 / 10" style="rounded=0;whiteSpace=wrap;html=1;" parent="1" vertex="1">
          <mxGeometry x="260" y="390" width="120" height="60" as="geometry" />
        </mxCell>
        <mxCell id="OAwSjOkc7tIBtyKEKRf7-61" value="" style="endArrow=classic;html=1;rounded=0;" parent="1" edge="1">
          <mxGeometry width="50" height="50" relative="1" as="geometry">
            <mxPoint x="319.5" y="450" as="sourcePoint" />
            <mxPoint x="319.5" y="520" as="targetPoint" />
          </mxGeometry>
        </mxCell>
        <mxCell id="OAwSjOkc7tIBtyKEKRf7-62" value="ed = a % 10" style="rounded=0;whiteSpace=wrap;html=1;" parent="1" vertex="1">
          <mxGeometry x="260" y="520" width="120" height="60" as="geometry" />
        </mxCell>
        <mxCell id="OAwSjOkc7tIBtyKEKRf7-63" value="" style="endArrow=classic;html=1;rounded=0;" parent="1" edge="1">
          <mxGeometry width="50" height="50" relative="1" as="geometry">
            <mxPoint x="319.5" y="580" as="sourcePoint" />
            <mxPoint x="319.5" y="640" as="targetPoint" />
          </mxGeometry>
        </mxCell>
        <mxCell id="OAwSjOkc7tIBtyKEKRf7-64" value="вывод&amp;nbsp;ed * 100 + dec * 10 + sot" style="shape=parallelogram;perimeter=parallelogramPerimeter;whiteSpace=wrap;html=1;fixedSize=1;" parent="1" vertex="1">
          <mxGeometry x="190" y="640" width="270" height="60" as="geometry" />
        </mxCell>
        <mxCell id="OAwSjOkc7tIBtyKEKRf7-65" value="" style="endArrow=classic;html=1;rounded=0;" parent="1" edge="1">
          <mxGeometry width="50" height="50" relative="1" as="geometry">
            <mxPoint x="319.5" y="700" as="sourcePoint" />
            <mxPoint x="319.5" y="760" as="targetPoint" />
          </mxGeometry>
        </mxCell>
        <mxCell id="OAwSjOkc7tIBtyKEKRf7-66" value="вывод ed * 100 + sot * 10 + dec" style="shape=parallelogram;perimeter=parallelogramPerimeter;whiteSpace=wrap;html=1;fixedSize=1;" parent="1" vertex="1">
          <mxGeometry x="190" y="760" width="270" height="60" as="geometry" />
        </mxCell>
        <mxCell id="OAwSjOkc7tIBtyKEKRf7-67" value="" style="endArrow=classic;html=1;rounded=0;" parent="1" edge="1">
          <mxGeometry width="50" height="50" relative="1" as="geometry">
            <mxPoint x="319.5" y="820" as="sourcePoint" />
            <mxPoint x="319.5" y="880" as="targetPoint" />
          </mxGeometry>
        </mxCell>
        <mxCell id="OAwSjOkc7tIBtyKEKRf7-68" value="вывод&amp;nbsp;dec * 100 + sot * 10 + ed" style="shape=parallelogram;perimeter=parallelogramPerimeter;whiteSpace=wrap;html=1;fixedSize=1;" parent="1" vertex="1">
          <mxGeometry x="190" y="880" width="270" height="60" as="geometry" />
        </mxCell>
        <mxCell id="OAwSjOkc7tIBtyKEKRf7-70" value="" style="endArrow=classic;html=1;rounded=0;" parent="1" edge="1">
          <mxGeometry width="50" height="50" relative="1" as="geometry">
            <mxPoint x="319.5" y="940" as="sourcePoint" />
            <mxPoint x="319.5" y="1000" as="targetPoint" />
          </mxGeometry>
        </mxCell>
        <mxCell id="OAwSjOkc7tIBtyKEKRf7-71" value="вывод&amp;nbsp;dec * 100 + ed * 10 + sot" style="shape=parallelogram;perimeter=parallelogramPerimeter;whiteSpace=wrap;html=1;fixedSize=1;" parent="1" vertex="1">
          <mxGeometry x="190" y="1000" width="270" height="60" as="geometry" />
        </mxCell>
        <mxCell id="OAwSjOkc7tIBtyKEKRf7-72" value="" style="endArrow=classic;html=1;rounded=0;" parent="1" edge="1">
          <mxGeometry width="50" height="50" relative="1" as="geometry">
            <mxPoint x="319.5" y="1060" as="sourcePoint" />
            <mxPoint x="319.5" y="1120" as="targetPoint" />
          </mxGeometry>
        </mxCell>
        <mxCell id="OAwSjOkc7tIBtyKEKRf7-73" value="вывод&amp;nbsp;sot * 100 + ed * 10 + dec" style="shape=parallelogram;perimeter=parallelogramPerimeter;whiteSpace=wrap;html=1;fixedSize=1;" parent="1" vertex="1">
          <mxGeometry x="190" y="1120" width="270" height="60" as="geometry" />
        </mxCell>
        <mxCell id="OAwSjOkc7tIBtyKEKRf7-74" value="" style="endArrow=classic;html=1;rounded=0;" parent="1" edge="1">
          <mxGeometry width="50" height="50" relative="1" as="geometry">
            <mxPoint x="319.5" y="1180" as="sourcePoint" />
            <mxPoint x="319.5" y="1240" as="targetPoint" />
          </mxGeometry>
        </mxCell>
        <mxCell id="OAwSjOkc7tIBtyKEKRf7-75" value="вывод&amp;nbsp;a" style="shape=parallelogram;perimeter=parallelogramPerimeter;whiteSpace=wrap;html=1;fixedSize=1;" parent="1" vertex="1">
          <mxGeometry x="190" y="1240" width="270" height="60" as="geometry" />
        </mxCell>
        <mxCell id="OAwSjOkc7tIBtyKEKRf7-76" value="" style="endArrow=classic;html=1;rounded=0;" parent="1" edge="1">
          <mxGeometry width="50" height="50" relative="1" as="geometry">
            <mxPoint x="319.5" y="1300" as="sourcePoint" />
            <mxPoint x="319.5" y="1360" as="targetPoint" />
          </mxGeometry>
        </mxCell>
      </root>
    </mxGraphModel>
  </diagram>
</mxfile>
